<?xml version="1.0" ?><!DOCTYPE svg  PUBLIC '-//W3C//DTD SVG 1.1//EN'  'http://www.w3.org/Graphics/SVG/1.1/DTD/svg11.dtd'><svg enable-background="new 0 0 512 512" height="512px" id="Craft" version="1.1" viewBox="0 0 512 512" width="512px" xml:space="preserve" xmlns="http://www.w3.org/2000/svg" xmlns:xlink="http://www.w3.org/1999/xlink"><path d="M255.999,0C397.382,0,512,114.614,512,256c0,141.387-114.618,256-256.001,256  C114.618,512,0,397.387,0,256C0,114.614,114.618,0,255.999,0z" fill="#699392" id="Background"/><g id="Craft_1_"><path d="M242.292,115.96h0.903h0.898h0.899h0.899h0.899h0.301c1.2,0,2.099,1.2,2.099,2.4s-0.899,2.397-2.4,2.099   l0,0h-0.899h-0.899h-0.899h-0.898h-0.903h-0.895h-0.903h-0.602c-1.196,0-2.099-0.899-2.099-2.099c-0.297-1.2,0.903-2.4,2.099-2.4   h0.602h0.903H242.292z M225.804,116.859c1.497,0,2.399,0.901,2.696,2.101c0,1.198-0.898,2.397-2.099,2.397h-0.301l-0.899,0.301   h-0.899l-0.899,0.299h-0.903h-0.598c-1.2,0.301-2.4-0.6-2.4-1.8c-0.297-1.198,0.598-2.398,1.802-2.699h0.598l0.899-0.299h0.903   h0.895l0.903-0.301H225.804z M207.51,120.158c1.2-0.299,2.399,0.6,3.001,1.8c0.297,1.2-0.602,2.399-1.802,2.698h-0.301   l-0.598,0.301l-0.903,0.299l-0.895,0.301h-0.602l-0.899,0.299l0,0c-1.501,0.301-2.701-0.299-2.998-1.499   c-0.301-1.2,0.297-2.399,1.497-2.699l0.301-0.301h0.602l0.895-0.299l0.903-0.301l0.899-0.299h0.598L207.51,120.158z    M189.817,126.157c1.2-0.6,2.399,0,3.001,1.198c0.598,1.2,0,2.4-1.204,3l-0.598,0.299l-0.598,0.301l-0.903,0.299l-0.598,0.301   l-0.899,0.299l-0.602,0.301c-1.196,0.6-2.399,0-2.998-1.2c-0.598-1.2,0-2.4,1.2-3l0.602-0.299l0.895-0.301l0.602-0.299l0.898-0.301   l0.899-0.598H189.817z M173.028,134.253c1.196-0.6,2.396-0.301,2.993,0.899c0.903,1.2,0.301,2.4-0.598,3l-0.598,0.299l-0.602,0.301   l-0.598,0.6l-0.899,0.299l-0.602,0.6l-0.602,0.299c-1.196,0.6-2.697,0.301-3.294-0.899c-0.602-0.899-0.301-2.4,0.899-3l0.598-0.299   l0.602-0.6l0.899-0.299l0.598-0.6l0.903-0.301L173.028,134.253z M157.434,144.448c0.895-0.6,2.399-0.6,3.294,0.6   c0.602,0.901,0.602,2.4-0.598,3.299l0,0l-0.899,0.6l-0.602,0.6l-0.598,0.301l-0.598,0.598l-0.602,0.6l0,0   c-1.2,0.901-2.4,0.6-3.298-0.299c-0.899-0.899-0.598-2.399,0.301-3.298l0,0l0.598-0.6l0.903-0.6l0.598-0.299l0.598-0.6l0.602-0.6   L157.434,144.448z M143.337,156.743c0.903-0.899,2.4-0.899,3.303,0c0.895,0.899,0.895,2.4,0,3.299v0.301l-0.602,0.598l-0.602,0.301   l-0.598,0.6l-0.598,0.6l-0.602,0.6v0.299c-0.898,0.899-2.399,0.899-3.298,0s-0.899-2.099-0.301-2.998l0.301-0.301l0.598-0.6   l0.602-0.6l0.602-0.6l0.598-0.6l0.598-0.598V156.743z M131.046,170.836c0.895-0.899,2.396-1.198,3.294-0.299   c0.903,0.6,1.204,2.099,0.301,3l-0.301,0.898l-0.598,0.6l-0.598,0.6l-0.301,0.6l-0.602,0.6l-0.301,0.598   c-0.598,0.901-2.099,1.2-2.993,0.301c-1.204-0.6-1.505-2.099-0.602-3l0.301-0.6l0.301-0.598l0.598-0.6l0.598-0.6l0.301-0.901   L131.046,170.836z M120.845,186.43c0.602-1.2,1.802-1.499,3.001-0.899c1.2,0.6,1.497,2.099,0.899,3.298l-0.297,0.6l-0.602,0.6   l-0.301,0.6l-0.301,0.899l-0.297,0.6l-0.301,0.6c-0.598,0.899-2.099,1.5-3.298,0.899c-0.899-0.601-1.497-2.099-0.899-2.998   l0.297-0.6l0.301-0.901l0.602-0.6l0.301-0.899l0.297-0.6L120.845,186.43z M112.45,203.224c0.602-1.2,1.798-1.8,3.002-1.2   c1.196,0.299,1.797,1.8,1.497,2.998l-0.301,0.6l-0.297,0.6l-0.301,0.901l-0.297,0.899l-0.301,0.6l-0.301,0.6   c-0.301,1.2-1.797,1.8-3.001,1.2c-1.196-0.301-1.798-1.8-1.196-3v-0.299l0.301-0.901l0.297-0.6l0.301-0.899l0.297-0.898   L112.45,203.224z M106.756,220.916c0.297-1.2,1.497-2.099,2.696-1.501c1.2,0.301,2.099,1.501,1.802,2.697l0,0l-0.301,0.903   l-0.301,0.899l-0.301,0.598v0.903l-0.301,0.899l0,0c-0.301,1.5-1.497,2.099-2.697,1.802c-1.2-0.301-2.099-1.505-1.802-2.701l0,0   l0.301-0.903l0.301-0.895v-0.903l0.301-0.899L106.756,220.916L106.756,220.916z M103.153,239.207   c0.301-1.2,1.505-2.099,2.701-2.099c1.2,0.301,2.099,1.5,1.797,2.696v0.602v0.903v0.895l-0.297,0.903v0.899v0.297   c0,1.204-1.2,2.099-2.399,2.099c-1.501,0-2.4-1.196-2.099-2.396v-0.598v-0.903v-0.899l0.297-0.899v-0.602V239.207z    M102.258,257.798c0-1.2,0.895-2.099,2.4-2.099c1.196,0,2.099,0.898,2.099,2.099v0.902v0.899l0.297,0.898v0.899v0.898l0,0   c0,1.2-0.899,2.399-2.396,2.399c-1.204,0-2.103-0.898-2.4-2.099v-0.301v-0.898v-0.899V259.6V258.7V257.798z M103.754,276.394   c-0.301-1.2,0.602-2.4,1.798-2.4c1.501-0.301,2.4,0.599,2.701,1.798l0,0v0.899l0.301,0.898v0.903l0.301,0.598v0.898v0.301   c0.301,1.2-0.301,2.4-1.802,2.701c-1.2,0.297-2.396-0.602-2.697-1.802v-0.301v-0.899l-0.301-0.898v-0.899l-0.301-0.898V276.394   L103.754,276.394z M107.651,294.684c-0.297-1.2,0.301-2.399,1.505-2.701c1.196-0.297,2.697,0.302,2.994,1.501v0.598l0.301,0.603   l0.301,0.898l0.301,0.899v0.602l0.301,0.598c0.297,1.2-0.301,2.701-1.501,2.998c-1.2,0.301-2.4-0.297-2.697-1.497l-0.301-0.602   l-0.301-0.899l-0.301-0.898l-0.301-0.598l-0.301-0.903V294.684z M113.951,312.376c-0.598-1.2,0-2.399,1.2-2.998   c1.2-0.602,2.4,0,2.998,1.196l0.301,0.602l0.297,0.599l0.301,0.902l0.301,0.598l0.602,0.899v0.301   c0.598,1.2,0.297,2.696-0.903,3.299c-1.196,0.301-2.399,0-2.998-1.2l-0.297-0.598l-0.301-0.603l-0.602-0.898l-0.301-0.598   l-0.301-0.903L113.951,312.376z M122.647,328.868c-0.598-0.898-0.297-2.399,0.598-2.997c1.204-0.903,2.701-0.603,3.303,0.598   l0.297,0.602l0.598,0.599l0.301,0.898l0.301,0.603l0.602,0.598l0.301,0.602c0.598,0.899,0.297,2.396-0.602,2.998   c-1.2,0.898-2.4,0.598-3.299-0.603l-0.301-0.598l-0.297-0.602l-0.602-0.599l-0.301-0.898l-0.598-0.602L122.647,328.868z    M133.441,344.161c-0.899-0.898-0.598-2.399,0.301-3.298c0.899-0.599,2.4-0.599,3.299,0.301l0.301,0.598l0.301,0.602l0.598,0.599   l0.598,0.602l0.602,0.598l0.301,0.598c0.895,0.903,0.895,2.4,0,3.299c-1.204,0.603-2.4,0.603-3.303-0.297l-0.598-0.602   l-0.598-0.599l-0.602-0.602l-0.301-0.898l-0.598-0.599L133.441,344.161z M146.038,357.957c-0.903-0.902-0.903-2.399,0-3.303   c0.899-0.898,2.399-0.898,3.298,0l0,0l0.598,0.603l0.602,0.598l0.598,0.603l0.598,0.598l0.602,0.301l0.301,0.301   c0.899,0.598,0.899,2.099,0,2.998c-0.602,1.199-2.099,1.199-3.002,0.301h-0.297l-0.598-0.603l-0.602-0.598l-0.602-0.602   l-0.598-0.598l-0.598-0.599H146.038z M160.432,369.65c-0.899-0.602-1.2-2.099-0.598-2.997c0.895-1.2,2.396-1.501,3.294-0.603l0,0   l0.903,0.603l0.598,0.297l0.598,0.602l0.602,0.301l0.899,0.599v0.301c1.2,0.598,1.501,2.099,0.598,2.997   c-0.598,1.2-2.099,1.501-2.998,0.599h-0.297l-0.602-0.599l-0.899-0.301l-0.598-0.598l-0.602-0.603l-0.899-0.297V369.65z    M176.322,379.546c-1.196-0.602-1.497-1.798-0.899-2.997c0.598-1.2,1.802-1.501,2.998-0.903l0,0l0.903,0.301l0.598,0.603   l0.898,0.297l0.602,0.301l0.598,0.301l0.301,0.301c1.2,0.599,1.802,1.798,1.2,2.998c-0.602,1.201-1.797,1.498-3.001,1.201   l-0.297-0.303l-0.899-0.301l-0.602-0.598l-0.899-0.301l-0.598-0.301L176.322,379.546L176.322,379.546z M193.417,387.344   c-1.2-0.301-1.802-1.803-1.501-2.998c0.602-1.199,1.798-1.801,3.001-1.199l0,0l0.895,0.297l0.602,0.301l0.903,0.301l0.895,0.301   h0.602l0.301,0.297c1.196,0.301,1.798,1.502,1.497,2.701c-0.301,1.2-1.798,2.099-2.998,1.501h-0.297l-0.602-0.301l-0.903-0.301   l-0.895-0.302l-0.602-0.297L193.417,387.344L193.417,387.344z M211.109,392.741c-1.2-0.301-1.802-1.501-1.802-2.7   c0.301-1.196,1.5-2.1,3.001-1.798h0.301l0.895,0.301h0.602l0.899,0.301l0.898,0.297h0.602c1.497,0.301,2.099,1.501,1.798,2.701   c0,1.199-1.196,2.099-2.701,1.798h-0.598l-0.899-0.302l-0.899-0.297h-0.899l-0.602-0.301H211.109z M229.701,395.739   c-1.2-0.297-2.4-1.2-2.099-2.697c0-1.199,1.2-2.099,2.399-2.099h0.301l0.895,0.297h0.602h0.899h0.899h0.903l0,0   c1.196,0.301,2.399,1.2,2.099,2.4c0,1.5-0.903,2.399-2.4,2.399l0,0h-0.903l-0.895-0.301h-0.903H230.6H229.701L229.701,395.739z    M248.292,396.04c-1.2,0-2.4-0.899-2.4-2.099c0-1.2,0.899-2.4,2.103-2.4h0.598h0.899l0.602-0.301h0.895h0.903h0.598   c1.501,0,2.399,0.899,2.701,2.099c0,1.2-0.899,2.4-2.103,2.4h-0.895l-0.903,0.301h-0.899h-0.899h-0.899H248.292z M266.881,393.941   c-1.199,0.301-2.399-0.603-2.696-1.802c-0.301-1.196,0.598-2.396,1.798-2.697h0.301h0.898l0.899-0.301h0.898l0.603-0.297   l0.898-0.301c1.2,0,2.399,0.598,2.696,1.798c0.302,1.501-0.598,2.7-1.797,2.7l-0.899,0.297l-0.602,0.302h-0.899l-0.898,0.301   h-0.899H266.881z M284.875,389.744c-1.2,0.297-2.4-0.302-2.701-1.501c-0.598-1.2,0.301-2.702,1.501-2.999l0.598-0.301l0.903-0.301   l0.598-0.297h0.898l0.603-0.301l0.598-0.301c1.2-0.301,2.399,0.301,2.998,1.5c0.301,1.201-0.298,2.4-1.497,2.999h-0.301   l-0.899,0.301l-0.898,0.301l-0.903,0.297l-0.598,0.301L284.875,389.744z M302.266,382.846c-1.199,0.598-2.399,0-2.997-1.201   c-0.602-1.199,0-2.399,1.2-2.997l0,0l0.598-0.301l0.898-0.599l0.603-0.301l0.898-0.301l0.598-0.301l0.302-0.297   c1.199-0.603,2.7,0,2.997,0.898c0.602,1.2,0.301,2.697-0.898,3.299h-0.297l-0.603,0.598l-0.898,0.301l-0.899,0.303l-0.602,0.297   L302.266,382.846L302.266,382.846z M318.759,373.547c-1.2,0.903-2.696,0.603-3.299-0.598c-0.598-0.898-0.301-2.399,0.603-2.998   l0.598-0.602l0.898-0.301l0.603-0.598l0.598-0.599l0.602-0.301l0.599-0.301c0.898-0.598,2.399-0.598,2.997,0.602   c0.898,0.899,0.602,2.396-0.297,3.299l-0.602,0.297l-0.599,0.301l-0.602,0.599l-0.898,0.301l-0.599,0.602L318.759,373.547z    M333.453,362.451c-0.898,0.903-2.399,0.603-2.997-0.297c-0.903-0.902-0.903-2.399,0-3.298l0.598-0.301l0.598-0.599l0.603-0.602   l0.598-0.301l0.602-0.598l0.599-0.603c0.898-0.598,2.399-0.598,3.298,0.301c0.603,0.899,0.603,2.4-0.297,3.299l-0.602,0.301   l-0.598,0.598l-0.603,0.603l-0.598,0.598l-0.602,0.602L333.453,362.451z M346.948,349.258c-0.902,1.199-2.399,1.199-3.298,0.301   c-0.903-0.898-0.903-2.399-0.301-3.299l0.301-0.301l0.598-0.598l0.598-0.603l0.603-0.598l0.598-0.598l0.301-0.602   c0.898-0.899,2.399-1.2,3.299-0.302c0.898,0.903,1.199,2.099,0.301,3.299l-0.602,0.602l-0.599,0.599l-0.301,0.602l-0.598,0.598   l-0.603,0.603L346.948,349.258z M358.341,334.566c-0.598,1.2-2.099,1.497-2.997,0.599c-1.2-0.599-1.501-2.099-0.603-2.998v-0.301   l0.603-0.598l0.301-0.899l0.598-0.602l0.301-0.598l0.599-0.603v-0.301c0.602-0.898,2.099-1.497,3.001-0.598   c1.196,0.598,1.497,2.099,0.899,2.997l-0.302,0.301l-0.301,0.599l-0.598,0.602l-0.301,0.899l-0.598,0.602l-0.302,0.598   L358.341,334.566z M367.939,318.672c-0.602,0.899-2.103,1.501-3.299,0.899c-0.902-0.599-1.5-1.798-0.902-2.998v-0.301l0.602-0.598   l0.301-0.899l0.298-0.602l0.301-0.899l0.301-0.598v-0.301c0.598-1.2,2.099-1.501,3.299-1.2c0.898,0.599,1.496,2.099,0.898,3.299   l0,0l-0.301,0.898l-0.301,0.603l-0.297,0.898l-0.603,0.598l-0.297,0.899V318.672z M375.135,301.28   c-0.598,1.2-1.798,1.798-2.998,1.501c-1.199-0.301-1.802-1.802-1.501-3.002l0.302-0.297v-0.602l0.301-0.898l0.297-0.899   l0.301-0.602l0.301-0.899l0,0c0.297-1.199,1.497-1.798,2.697-1.501c1.199,0.302,2.099,1.501,1.5,2.701l0,0v0.898l-0.301,0.899   l-0.301,0.902l-0.297,0.599l-0.301,0.898V301.28z M379.934,283.287c-0.301,1.2-1.5,2.099-2.7,1.802   c-1.2-0.301-2.099-1.501-1.798-2.7v-0.599l0.297-0.902v-0.899l0.301-0.898v-0.598v-0.603c0.301-1.199,1.501-2.099,2.701-1.798   c1.199,0.302,2.099,1.2,2.099,2.697l-0.301,0.301v0.898l-0.302,0.899v0.902l-0.297,0.899V283.287z M382.329,264.695   c-0.297,1.2-1.195,2.4-2.396,2.1c-1.5,0-2.399-0.899-2.399-2.4l0.301-0.598v-0.898v-0.603v-0.898v-0.899v-0.602   c0-1.196,1.196-2.099,2.396-2.099c1.2,0,2.4,0.902,2.099,2.399v0.301v0.899v0.898v0.899v0.902V264.695z M382.032,246.104   c0.297,1.2-0.602,2.399-2.099,2.399c-1.199,0.297-2.399-0.898-2.399-2.103v-0.895v-0.602l-0.301-0.899v-0.899v-0.903v-0.297   c-0.301-1.2,0.602-2.4,2.099-2.4c1.2-0.301,2.399,0.598,2.399,1.802v0.297v0.899l0.301,0.903v0.895v0.903V246.104z    M379.633,227.513c0.301,1.2-0.602,2.701-1.798,2.701c-1.199,0.297-2.399-0.301-2.7-1.802v-0.598l-0.301-0.602l-0.297-0.898v-0.899   l-0.302-0.903v-0.297c-0.301-1.2,0.302-2.399,1.497-2.7c1.2-0.598,2.701,0.301,3.002,1.5v0.602l0.297,0.895v0.903l0.301,0.598   l0.301,0.899V227.513z M374.537,209.52c0.598,1.2,0,2.699-1.2,3c-1.2,0.6-2.701-0.301-3.002-1.499l0,0l-0.297-0.901l-0.301-0.6   l-0.301-0.899l-0.301-0.6l-0.297-0.899v-0.301c-0.603-1.2,0-2.398,1.199-2.998c1.2-0.301,2.396,0.299,2.998,1.499v0.299l0.301,0.6   l0.297,0.901l0.301,0.899l0.301,0.6L374.537,209.52L374.537,209.52z M367.338,192.427c0.602,1.2,0,2.4-1.2,3   c-0.898,0.6-2.399,0.299-2.997-0.899v-0.301l-0.302-0.6l-0.598-0.601l-0.301-0.898l-0.301-0.6l-0.598-0.899l0,0   c-0.603-1.2-0.302-2.701,0.898-3.298c1.2-0.6,2.399,0,2.998,0.899l0.301,0.299l0.301,0.6l0.598,0.901l0.301,0.6l0.302,0.899   l0.297,0.6L367.338,192.427z M357.743,176.534c0.598,0.899,0.301,2.4-0.602,3c-1.2,0.898-2.4,0.6-3.299-0.6l0,0l-0.598-0.6   l-0.302-0.6l-0.598-0.899l-0.301-0.6l-0.598-0.6v-0.301c-0.903-0.899-0.603-2.397,0.297-3.298c0.898-0.6,2.399-0.299,3.298,0.6   v0.301l0.603,0.6l0.598,0.598l0.301,0.901l0.599,0.6l0.602,0.6V176.534z M346.046,161.841c0.902,0.898,0.902,2.397,0,3.298   c-0.899,0.899-2.396,0.6-3.299-0.301l-0.598-0.6l-0.603-0.598l-0.598-0.6l-0.598-0.6l-0.301-0.6l-0.603-0.301   c-0.598-0.899-0.598-2.397,0.302-3.298c0.898-0.899,2.099-0.6,2.997,0.301l0.603,0.299l0.598,0.6l0.301,0.6l0.598,0.6l0.603,0.6   L346.046,161.841z M332.555,148.946c1.2,0.6,1.2,2.099,0.297,3.299c-0.598,0.901-2.099,0.901-3.299,0l-0.297-0.299l-0.602-0.6   l-0.598-0.301l-0.603-0.6l-0.898-0.598l-0.301-0.301c-1.2-0.899-1.2-2.099-0.599-3.299c0.899-0.898,2.4-1.2,3.299-0.299   l0.598,0.299l0.603,0.6l0.598,0.6l0.898,0.6l0.603,0.299L332.555,148.946z M317.559,137.851c1.2,0.6,1.501,2.099,0.603,3   c-0.603,1.2-2.099,1.499-3.002,0.899l-0.297-0.299l-0.898-0.6l-0.603-0.301l-0.598-0.299l-0.903-0.6l-0.598-0.299   c-1.2-0.6-1.501-2.101-0.898-3.298c0.898-0.901,2.099-1.2,3.298-0.6l0.599,0.299l0.898,0.6l0.602,0.299l0.599,0.6l0.898,0.301   L317.559,137.851z M301.066,128.856c1.199,0.6,1.802,1.797,1.199,2.998c-0.598,1.2-1.797,1.8-2.997,1.2l-0.301-0.299l-0.899-0.301   l-0.602-0.299l-0.899-0.301l-0.598-0.299l-0.898-0.301c-1.2-0.6-1.501-1.798-1.2-2.998c0.598-1.2,1.798-1.8,2.998-1.2l0.898,0.299   l0.602,0.301l0.899,0.299l0.898,0.301l0.599,0.299L301.066,128.856z M283.675,122.259c1.2,0.299,2.099,1.499,1.501,2.699   c-0.301,1.2-1.501,2.099-2.701,1.499h-0.598l-0.903-0.299l-0.598-0.301l-0.898-0.299h-0.899l-0.602-0.301   c-1.2-0.299-1.798-1.499-1.497-2.699c0.297-1.2,1.497-2.099,2.697-1.8l0.598,0.301l0.902,0.299h0.899l0.898,0.301l0.603,0.299   L283.675,122.259z M265.682,117.76c1.199,0.299,2.099,1.499,1.802,2.699c-0.302,1.2-1.501,2.099-2.701,1.8l0,0h-0.898l-0.899-0.301   h-0.898h-0.903l-0.598-0.299h-0.301c-1.198,0-2.097-1.2-1.796-2.399c0-1.499,1.2-2.4,2.397-2.099h0.297h0.903l0.898,0.299h0.599   l0.898,0.301h0.903H265.682z" fill="#CCE7D4"/><path d="M87.563,329.17c-2.099,0.898-4.202,1.199-5.999,0.898c-2.099-0.602-3.896-1.802-5.397-3.299   c-5.397,18.592-13.792,41.982-27.287,59.676C25.489,417.031,0,375.349,4.799,357.656c6.296-22.793,18.294-49.478,25.188-57.575   c11.392-13.194,27.889-11.693,42.279-7.195c6.898-49.779,42.885-46.484,34.189-2.103c20.092,1.802,41.38,8.098,48.278,29.987   c3.896,12.897,4.498,50.08,0.602,79.768c-3.002,23.391-53.98,59.374-65.975,11.693C82.764,385.244,84.565,353.459,87.563,329.17z    M66.873,306.08c-9.599-2.701-19.791-3.6-25.791,3.595c-2.696,3.002-5.698,9.298-7.496,12.897   c-3.896,7.797-6.898,15.59-9.896,23.688c-1.802,5.101-3.6,10.197-4.8,15.293c-0.898,3.002,2.099,10.196,3.6,12.897   c1.2,2.396,5.096,7.794,8.395,8.396c2.099,0.301,5.698-3.901,6.597-5.098c4.499-5.999,8.098-12.295,11.396-18.892   c6.296-13.194,11.096-27.291,14.992-41.385C64.473,314.775,65.669,310.574,66.873,306.08z M105.255,305.177   c-0.899,5.999-1.802,12.295-2.701,18.295c-2.396,18.892-3.896,37.78-2.998,56.673c0.301,9.6,1.497,19.193,3.896,28.491   c0.903,3.896,3.303,11.092,8.098,12.291c9.595,2.4,28.19-13.193,29.386-22.19c0.903-6.894,1.5-13.793,2.099-20.69   c0.602-10.795,0.602-21.891,0.301-32.685c-0.301-5.698-0.899-14.695-2.399-20.093C136.439,310.574,120.247,306.377,105.255,305.177   z" fill="#33CC99"/><path d="M85.761,331.269c-0.297,0-0.895,0.297-1.196,0.297c-1.204,0-2.099,0-3.303-0.297   c-1.196,0-2.396-0.603-3.294-1.2c-0.301-0.301-0.903-0.602-1.204-0.602c-2.396,8.695-5.694,18.294-9.892,27.889   c-4.499,10.794-10.197,20.991-16.793,29.988c-5.698,7.496-11.693,10.795-17.396,11.393c-4.498,0.301-8.695-0.898-12.592-3.294   c-3.596-2.701-6.898-6.301-9.595-10.198c-5.999-8.996-8.997-20.393-6.898-27.889c2.998-11.396,7.496-23.391,11.994-33.884   c4.799-10.795,9.896-20.093,13.194-24.29c5.995-6.897,13.194-9.896,20.991-10.794c7.195-0.603,14.394,0.598,21.292,2.396   c2.998-17.989,9.595-29.085,16.79-33.282c3.001-2.103,5.999-2.701,8.696-2.4c2.701,0.297,5.401,1.798,7.5,4.499   c4.498,5.096,6.597,15.293,4.197,29.987c9.599,0.899,19.49,2.998,27.889,7.496c8.993,4.498,16.493,11.994,19.791,23.391   c2.099,6.597,3.298,19.791,3.6,34.783c0,14.394-0.903,30.888-2.701,45.582c-1.497,9.595-10.494,21.589-21.89,28.784   c-5.101,3.6-10.794,5.999-16.493,6.897c-5.698,1.2-11.096,0.603-16.192-2.099c-6.3-3.599-11.396-10.493-14.097-21.89   c-3.595-13.495-4.799-28.487-4.799-42.882C83.361,356.155,84.265,342.962,85.761,331.269z M84.265,328.567   c0.898,0,1.797-0.301,2.7-0.598l2.099-1.2l-0.301,2.697c-1.2,11.994-2.399,26.091-2.399,40.184c0,14.395,1.2,28.789,4.498,42.284   c2.701,10.493,7.199,16.789,12.893,19.791c4.198,2.396,9.298,2.998,14.394,2.099c5.096-0.898,10.197-3.298,15.293-6.597   c10.498-6.898,19.193-17.993,20.393-26.99c2.099-14.394,2.697-30.587,2.697-44.98c-0.301-14.695-1.196-27.588-3.295-33.884   c-3.302-10.799-9.899-17.396-18.294-21.891c-8.696-4.498-18.893-6.3-28.487-7.198l-1.797-0.302l0.297-1.496   c2.998-14.395,0.899-24.29-2.998-29.089c-1.798-2.099-3.6-2.998-5.698-3.299s-4.499,0.301-6.898,1.798   c-6.597,4.201-12.893,14.996-15.59,32.989l-0.301,1.798l-1.501-0.603c-7.195-2.099-14.695-3.595-21.89-2.696   c-6.898,0.598-13.495,3.299-18.893,9.595c-3.6,4.197-8.094,12.897-12.893,23.691c-4.499,10.192-8.997,22.191-11.999,33.286   c-1.797,6.895,0.903,17.392,6.597,25.787c2.4,3.6,5.401,6.898,8.997,9.298c3.303,2.099,6.898,3.299,10.498,2.697   c5.096-0.297,10.197-3.299,15.293-10.198c6.597-8.695,11.994-18.888,16.493-29.084c4.499-10.498,7.797-20.991,10.494-30.289   l0.903-2.399l1.797,1.802c0.602,0.898,1.2,1.5,2.099,2.099c0.602,0.301,1.5,0.598,2.399,0.898   C82.467,328.868,83.361,328.868,84.265,328.567z M65.071,306.979c-4.197-0.898-8.395-1.802-12.295-1.501   c-4.197,0.302-7.793,1.798-10.794,5.097c-1.196,1.501-2.399,3.6-3.896,5.999c-1.2,2.399-2.399,4.8-3.302,6.597   c-1.798,3.9-3.596,7.496-5.092,11.396c-1.505,4.197-3.303,8.094-4.799,12.296c-0.903,2.396-1.501,4.795-2.4,7.495   c-0.903,2.4-1.5,5.097-2.399,7.496l0,0c-0.301,0.899,0,2.701,0.602,4.499c0.895,2.997,2.099,5.995,2.998,7.495   c0.598,1.2,2.396,3.6,4.197,5.397c1.2,1.2,2.099,2.099,3.298,2.099c0.301,0.301,0.899-0.297,1.497-0.898   c1.505-1.2,3.002-2.998,3.604-3.6c2.099-2.998,4.197-5.995,5.995-8.993l0,0c1.797-3.298,3.595-6.3,5.1-9.599   c3.294-6.597,5.995-13.495,8.395-20.389c2.4-6.898,4.799-13.796,6.597-20.991c0.598-1.199,0.899-3.298,1.497-5.397   C64.172,310.277,64.473,308.776,65.071,306.979z M52.475,302.781c4.799-0.301,9.899,0.598,14.699,1.798l1.196,0.598l-0.301,1.2   c-0.598,2.099-0.895,3.9-1.497,5.999c-0.602,2.099-0.903,3.896-1.5,5.397c-1.798,7.194-3.896,14.093-6.597,21.292   c-2.396,6.894-5.096,13.792-8.395,20.389c-1.501,3.299-3.299,6.597-5.397,9.896l0,0c-1.798,2.998-3.896,6.296-5.999,9.298   c-0.598,0.598-2.396,2.696-4.198,4.198c-1.2,0.898-2.696,1.797-3.9,1.5c-1.797-0.301-3.294-1.5-4.795-3.002   c-2.099-2.099-3.901-4.498-4.799-6.296c-0.899-1.501-2.099-4.8-2.998-7.797c-0.602-2.399-0.899-4.498-0.602-6.296l0,0   c0.602-2.399,1.5-5.101,2.399-7.496c0.602-2.7,1.501-5.101,2.4-7.797c1.501-3.9,3.298-8.098,4.799-12.295   c1.798-3.9,3.298-7.496,5.096-11.396c0.899-1.798,2.103-4.197,3.6-6.898c1.2-2.396,2.701-4.795,4.197-6.597   C43.181,304.579,47.68,303.078,52.475,302.781z M106.455,306.678c-0.301,1.798-0.301,3.299-0.602,4.799   c-0.598,4.198-1.196,8.396-1.798,12.292c-1.2,9.298-2.099,18.595-2.701,28.189c-0.598,9.294-0.899,18.893-0.301,28.187   c0,4.799,0.602,9.6,1.204,14.098c0.598,4.795,1.497,9.595,2.697,14.093c0.301,1.798,1.2,4.498,2.399,6.898   c1.2,2.099,2.697,3.896,4.499,4.197c0.297,0.297,0.297,0.297,0.598,0.297c4.499,0.602,10.498-2.396,15.895-6.598   c5.694-4.494,10.192-9.896,11.095-14.093c0,0,0-0.301,0.301-0.598c0.297-3.299,0.598-6.898,0.895-10.196   c0.301-3.3,0.602-6.599,0.903-10.197c0.301-5.698,0.602-11.096,0.602-16.794c0-5.397,0-10.795-0.301-15.891   c-0.301-2.998-0.301-6.598-0.602-10.196c-0.301-3.6-0.899-6.898-1.798-9.595c-2.099-6.898-6.898-11.396-13.194-14.094   C120.548,308.776,113.354,307.275,106.455,306.678z M102.856,311.176c0.297-2.399,0.598-4.498,0.898-6.296l0.301-1.501l1.2,0.301   c7.797,0.599,15.59,2.1,22.187,5.097c6.898,3.299,12.299,8.098,14.699,15.895c0.895,2.998,1.497,6.598,1.798,10.192   c0.301,3.9,0.598,7.5,0.598,10.197c0.301,5.396,0.598,10.794,0.301,16.191c0,5.698,0,11.396-0.598,17.095   c0,3.298-0.301,6.597-0.602,10.197c-0.301,3.596-0.602,6.898-1.2,10.192c0,0.301,0,0.903-0.297,1.2   c-0.903,4.799-5.999,10.798-11.999,15.297c-5.995,4.795-12.893,8.094-17.993,7.194c-0.297,0-0.598,0-0.895,0   c-3.001-0.598-5.1-2.997-6.597-5.999c-1.204-2.396-2.103-5.397-2.701-7.496c-1.2-4.498-2.099-9.293-2.701-14.093   c-0.598-4.799-0.899-9.896-1.196-14.395c-0.602-9.595-0.301-19.193,0.297-28.788c0.598-9.294,1.501-18.893,2.998-28.186   C101.656,318.973,102.258,315.072,102.856,311.176z" fill="#4E5A62"/><ellipse cx="106.032" cy="210.313" fill="#E6E6E6" rx="110.673" ry="20.883" transform="matrix(0.2007 -0.9796 0.9796 0.2007 -121.2837 271.971)"/><path d="M128.345,101.868c11.095,2.397,10.192,52.776-1.798,112.752c-3.001,13.495-5.999,26.388-9.298,38.082   l-8.997-1.802l14.097-146.635C124.449,102.465,126.547,101.567,128.345,101.868z" fill="#CCCCCC"/><path d="M90.032,288.412c4.58,0.939,7.533,5.413,6.593,9.993c-0.94,4.583-5.414,7.536-9.994,6.597   c-4.583-0.939-7.536-5.413-6.597-9.993C80.974,290.425,85.448,287.473,90.032,288.412z" fill="#CCCCCC"/><path d="M108.253,289.587c9.599,0.899,19.49,2.998,27.889,7.496c8.993,4.498,16.493,11.994,19.791,23.391   c2.099,6.597,3.298,19.791,3.6,34.783c0,14.394-0.903,30.888-2.701,45.582c-1.497,9.595-10.494,21.589-21.89,28.784   c-5.101,3.6-10.794,5.999-16.493,6.897c-5.698,1.2-11.096,0.603-16.192-2.099c-6.3-3.599-11.396-10.493-14.097-21.89   c-3.595-13.495-4.799-28.487-4.799-42.882c0-13.495,0.903-26.688,2.4-38.382c-0.297,0-0.895,0.297-1.196,0.297   c-1.204,0-2.099,0-3.303-0.297c-1.196,0-2.396-0.603-3.294-1.2c-0.301-0.301-0.903-0.602-1.204-0.602   c-2.396,8.695-5.694,18.294-9.892,27.889c-4.499,10.794-10.197,20.991-16.793,29.988c-5.698,7.496-11.693,10.795-17.396,11.393   c-4.498,0.301-8.695-0.898-12.592-3.294c-3.596-2.701-6.898-6.301-9.595-10.198c-5.999-8.996-8.997-20.393-6.898-27.889   c2.998-11.396,7.496-23.391,11.994-33.884c4.799-10.795,9.896-20.093,13.194-24.29c5.995-6.897,13.194-9.896,20.991-10.794   c7.195-0.603,14.394,0.598,21.292,2.396c0.602-2.396,0.899-4.499,1.497-6.895c0.602-2.7,1.204-5.1,2.099-7.495   c0.602-9.9,1.5-20.996,3.302-33.287c1.497-11.697,3.596-24.29,6.296-37.185c5.995-29.988,14.093-56.977,21.589-75.869   c8.098-19.49,16.195-30.887,22.792-29.687c6.296,1.501,9.294,14.994,8.997,36.284c-0.301,20.393-3.604,47.979-9.899,78.266   c-2.697,12.897-5.393,24.887-8.696,36.284c-3.294,11.698-6.597,22.492-9.892,31.489c-0.301,1.496-0.301,2.696-0.602,3.896   C108.554,287.484,108.253,288.388,108.253,289.587z M134.942,299.482c-8.696-4.498-18.893-6.3-28.487-7.198l-1.797-0.302   l0.297-1.496c0.301-1.501,0.598-3.002,0.899-4.202c0-1.195,0.301-2.696,0.301-3.896v-0.302c3.595-9.293,6.898-19.791,10.197-31.484   c2.998-11.396,5.999-23.691,8.695-36.284c6-29.988,9.294-57.576,9.595-77.668c0.301-19.792-1.798-32.386-6.597-33.284   c-4.799-1.2-11.994,9.594-19.49,27.887c-7.5,18.593-15.292,45.28-21.589,75.269c-2.7,12.893-4.799,25.489-6.3,37.183   c-1.501,11.995-2.697,23.391-2.998,32.986l-0.301,0.602c-0.602,2.099-1.497,4.795-2.099,7.496   c-0.602,2.399-0.899,5.096-1.497,8.098l-0.301,1.798l-1.501-0.603c-7.195-2.099-14.695-3.595-21.89-2.696   c-6.898,0.598-13.495,3.299-18.893,9.595c-3.6,4.197-8.094,12.897-12.893,23.691c-4.499,10.192-8.997,22.191-11.999,33.286   c-1.797,6.895,0.903,17.392,6.597,25.787c2.4,3.6,5.401,6.898,8.997,9.298c3.303,2.099,6.898,3.299,10.498,2.697   c5.096-0.297,10.197-3.299,15.293-10.198c6.597-8.695,11.994-18.888,16.493-29.084c4.499-10.498,7.797-20.991,10.494-30.289   l0.903-2.399l1.797,1.802c0.602,0.898,1.2,1.5,2.099,2.099c0.602,0.301,1.5,0.598,2.399,0.898c0.602,0.301,1.497,0.301,2.4,0   c0.898,0,1.797-0.301,2.7-0.598l2.099-1.2l-0.301,2.697c-1.2,11.994-2.399,26.091-2.399,40.184c0,14.395,1.2,28.789,4.498,42.284   c2.701,10.493,7.199,16.789,12.893,19.791c4.198,2.396,9.298,2.998,14.394,2.099c5.096-0.898,10.197-3.298,15.293-6.597   c10.498-6.898,19.193-17.993,20.393-26.99c2.099-14.394,2.697-30.587,2.697-44.98c-0.301-14.695-1.196-27.588-3.295-33.884   C149.934,310.574,143.337,303.978,134.942,299.482z" fill="#4E5A62"/><rect fill="#f55645" height="86.99" transform="matrix(-0.9598 0.2809 -0.2809 -0.9598 443.2505 347.7545)" width="73.488" x="159.963" y="162.143"/><rect fill="#F7ADAF" height="86.988" transform="matrix(-0.9963 0.0855 -0.0855 -0.9963 442.2299 377.268)" width="73.488" x="176.289" y="154.614"/><path d="M247.393,151.645c0-0.899-0.903-1.499-1.501-1.499l-25.489,2.099c-0.301,0-0.598,0-1.196,0l-1.204,0.301   l-45.276,3.898c-0.903,0-1.5,0.899-1.5,1.499l0.598,8.096l-23.085,6.898c-0.602,0-1.204,0.899-0.903,1.798l24.59,83.364   c0,0.899,0.899,1.2,1.497,0.899l60.878-17.689l18.587-1.505c0.903-0.297,1.5-0.895,1.5-1.497L247.393,151.645z M234.5,239.804   l-60.875,17.994l-24.29-83.664l24.29-6.896l-0.899-9.296l45.578-3.898l1.501-0.6v0.301l26.087-2.101l7.496,86.663L234.5,239.804z" fill="#4E5A62"/><polygon fill="#f55645" points="258.789,276.394 192.518,294.984 178.421,327.669 201.812,315.072 253.99,384.643  "/><polygon fill="#f55645" points="192.518,294.984 192.518,294.984 178.421,327.669 201.812,315.072  "/><polygon fill="#f55645" points="253.99,384.643 262.086,200.224 369.136,82.976 369.136,354.057 322.358,399.937  "/><path d="M369.136,331.565l141.539-162.829c0,0-109.453,18.292-141.539,24.591V331.565z" fill="#f55645"/><polygon fill="#f55645" points="368.839,354.357 451.899,406.533 452.502,421.229 322.358,399.937  "/><path d="M432.409,394.242l19.49,12.291l0,0L432.409,394.242L432.409,394.242z M452.2,421.229l0.899,27.889   l-20.69,21.89V417.93L452.2,421.229z" fill="#f55645"/><path d="M370.636,191.528c33.885-6.299,139.441-23.991,139.738-23.991c0.602-0.299,1.501,0.301,1.501,1.2   c0.301,0.301,0,0.901-0.301,1.2l-140.938,162.23v21.589l81.866,51.28c0.598,0.302,0.898,0.899,0.898,1.497l0.301,14.695v0.301   l0.899,27.588c0,0.301,0,0.898-0.302,1.2l0,0l-20.689,21.89c-0.598,0.598-1.501,0.598-2.099,0c-0.301-0.301-0.301-0.603-0.301-1.2   l0,0V419.13l-109.152-17.692h-0.302l-68.067-15.293c-0.301,0-0.602-0.301-0.899-0.604l-51.275-68.667l-22.191,11.994   c-0.903,0.302-1.802,0-2.099-0.602c-0.301-0.297-0.301-0.898,0-1.196l0,0l14.093-32.688c0-0.302,0.598-0.599,0.899-0.899   l65.072-18.29l3.296-74.969c0-0.299,0.301-0.899,0.301-0.899l0,0L367.939,82.077c0.598-0.6,1.497-0.6,2.099-0.301   c0.297,0.301,0.598,0.899,0.598,1.2l0,0V191.528z M506.778,170.836c-19.791,3.298-108.855,18.292-137.342,23.991h-0.301   c-0.899,0-1.497-0.6-1.497-1.499V86.573L263.583,200.824l-3.299,75.57c0,0.598-0.596,1.195-1.198,1.496l-65.372,18.295   l-12.292,28.186l19.792-10.493c0.598-0.301,1.195-0.301,1.797,0.297l51.877,69.27l67.47,14.996l110.352,17.989   c0.599,0,1.2,0.603,1.2,1.501v49.478l17.692-18.892l-0.602-27.287v-0.302v-0.297l-0.599-13.494l-82.463-51.578l0,0c0,0,0,0-0.301,0   c-0.301-0.602-0.301-1.501,0-2.099v-21.894l0,0c0-0.297,0-0.599,0.301-0.899L506.778,170.836z" fill="#4E5A62"/></g></svg>