<svg width="1815" height="515" xmlns="http://www.w3.org/2000/svg" version="1.1">
 <g id="Layer_1">
  <title>Layer 1</title>
  <g id="svg_3" clip-path="url(#c_1)">
   <path id="svg_19" fill="#90C3BE" class="g0_1" d="m536.29992,448.46957c0,35.4 -24.3,65.2 -65.3,65.2c-40.7,0 -64.5,-29.8 -64.5,-65.2l0,-65.6c0,-35.1 24.1,-65.3 64.5,-65.3c40.5,0 64.5,30.4 64.5,66.6l0,1.4l-38.6,0l0,-1.6c0,-15.9 -9.5,-29.9 -25.9,-29.9c-17.2,0 -25.9,13.7 -25.9,28.8l0,65.6c0,15.3 8.2,28.8 25.9,28.8c17.2,0 26.7,-13.5 26.7,-28.8l0,-3.7l38.6,0l0,3.7z"/>
   <path id="svg_20" fill="#90C3BE" class="g0_1" d="m589.69992,382.86957l0,65.6c0,15.3 9.3,28.8 27.8,28.8c18.5,0 27.7,-13.5 27.7,-28.8l0,-65.6c0,-15.1 -9.5,-28.8 -27.7,-28.8c-18.3,0 -27.8,13.7 -27.8,28.8m94.1,0l0,65.3c0,35.1 -24.8,65.5 -66.3,65.5c-41.8,0 -66.4,-30.4 -66.4,-65.5l0,-65.3c0,-35.1 24.9,-65.3 66.4,-65.3c41.5,0 66.3,30.2 66.3,65.3z"/>
   <path id="svg_21" fill="#90C3BE" class="g0_1" d="m738.79992,473.26957l21.1,0c18,0 27.5,-12.9 27.5,-27.8l0,-59.2c0,-15 -9.8,-28.2 -27.5,-28.2l-21.1,0l0,115.2zm21.1,-151.4c41.5,0 66.1,29.8 66.1,64.7l0,58.7c0,34.6 -24.6,64.2 -66.1,64.2l-59.4,0l0,-187.6l59.4,0z"/>
   <path id="svg_22" fill="#90C3BE" class="g0_1" d="m881.19992,358.06957l0,37l52.4,0l0,36.4l-52.4,0l0,41.8l67.7,0l0,36.2l-106.2,0l0,-187.6l106.2,0l0,36.2l-67.7,0z"/>
   <path id="svg_23" fill="#90C3BE" class="g0_1" d="m986.39992,339.76957l0,64.5l59.8,0l0,18l-59.8,0l0,87.2l-18.7,0l0,-187.6l97.2,0l0,17.9l-78.5,0z"/>
   <path id="svg_24" fill="#90C3BE" class="g0_1" d="m1125.69992,321.86957l-18.7,0l-58.7,187.6l20.3,0l47.6,-159.4l48.4,159.4l19.8,0l-58.7,-187.6z"/>
   <path id="svg_25" fill="#90C3BE" class="g0_1" d="m1305.99992,451.86957c0,35.1 -22.5,61.3 -59.2,61.3c-36.2,0 -59,-26.2 -59,-61.6l0,-71.9c0,-35.6 22.2,-61.5 58.7,-61.5c36.2,0 58.7,24.5 58.7,58.6l0,0.8l-18.8,0l0,-0.8c0,-24 -15.3,-40.9 -39.9,-40.9c-25.3,0 -39.9,17.7 -39.9,44.1l0,71.4c0,26.1 14.8,44.1 40.2,44.1c25.4,0 40.2,-18 40.2,-43.6l0,-2.6l19,0l0,2.6z"/>
   <path id="svg_26" fill="#90C3BE" class="g0_1" d="m1424.09992,339.76957l-49.6,0l0,169.7l-18.8,0l0,-169.7l-49.4,0l0,-17.9l117.8,0l0,17.9z"/>
   <path id="svg_27" fill="#90C3BE" class="g0_1" d="m1444.99992,379.96957l0,71.4c0,25.9 15.9,44.1 42.3,44.1c26.4,0 42.3,-18.2 42.3,-44.1l0,-71.4c0,-26.4 -15.6,-43.9 -42.3,-43.9c-26.4,0 -42.3,17.7 -42.3,43.9m103.6,0l0,71.6c0,35.4 -23.2,61.6 -61.3,61.6c-37.5,0 -61,-26.2 -61,-61.6l0,-71.6c0,-35.7 23.5,-61.8 61,-61.8c38.1,0 61.3,26.1 61.3,61.8z"/>
   <path id="svg_28" fill="#90C3BE" class="g0_1" d="m1590.69992,339.76957l0,64.5l32.2,0c22.2,0 34.6,-13.2 34.6,-32.5c0,-19 -12.1,-32 -34.6,-32l-32.2,0zm32.2,-17.9c35.7,0 53.9,23.5 53.9,49.9c0,25.4 -16.4,48.1 -48.3,50.2l64.7,87.5l-22.5,0l-63.4,-87.5l-16.6,0l0,87.5l-18.8,0l0,-187.6l51,0z"/>
   <path id="svg_29" fill="#90C3BE" class="g0_1" d="m1754.29992,414.36957l0,95.1l-18.8,0l0,-94.9l-58.7,-92.7l22,0l46.2,73.4l46.3,-73.4l22.7,0l-59.7,92.5z"/>
   <path id="svg_30" fill="#90C3BE" class="g0_1" d="m304.09992,160.16957l23.2,0l13.9,-43.8l0,-40.7l-44.9,0l0,43.5l21.2,0l-13.4,41z"/>
   <path id="svg_31" fill="#90C3BE" class="g0_1" d="m340.29992,1.36957l-43.5,0l0,43.5l43.5,0l0,-43.5z"/>
   <path id="svg_32" fill="#90C3BE" class="g0_1" d="m69.69992,429.66957l54.5,24.9l0,-20.3l-31.7,-13.1l31.7,-13.2l0,-20.3l-54.5,24.9l0,17.1z"/>
   <path id="svg_33" fill="#90C3BE" class="g0_1" d="m222.39992,454.56957l54.4,-24.9l0,-17.1l-54.4,-24.9l0,20.3l31.6,13.2l-31.6,13.1l0,20.3z"/>
   <path id="svg_34" fill="#90C3BE" class="g0_1" d="m287.29992,194.36957l0,127.2l-33.7,0l-14.7,31.6l79.9,0l0,127.2l-138.2,0l-15,31.5l184.8,0l0,-317.5l-63.1,0z"/>
   <path id="svg_35" fill="#90C3BE" class="g0_1" d="m132.19992,480.36957l-99,0l0,-126.7l79.2,-31.7l0,30.8l97.9,-39.2l-78.1,166.8zm11.7,-174.5l0,-31.9l-142.2,58.3l0,179.7l141.1,0l116.3,-252l-115.2,45.9z"/>
  </g>
 </g>
</svg>