<?xml version="1.0" encoding="UTF-8" standalone="no"?>
<!DOCTYPE svg PUBLIC "-//W3C//DTD SVG 1.1//EN"
"http://www.w3.org/Graphics/SVG/1.1/DTD/svg11.dtd">


<!-- Page 1 -->
<svg x="0" y="0" width="2681" height="1104" viewBox="0 0 2681 1104" version="1.1" xmlns="http://www.w3.org/2000/svg" xmlns:xlink="http://www.w3.org/1999/xlink"
style="display: block;margin-left: auto;margin-right: auto;">
<defs>
<clipPath id="c_1"><path d="M0,0H2681V1104H0Z"/></clipPath>
<style type="text/css"><![CDATA[

.g0_1{
fill: #90C3BE;
}

]]></style>

</defs>
<path d="M0,0
L0,1104
L2681,1104
L2681,0 Z " 
fill="none"   >
<g clip-path="url(#c_1)">
<path d="M1007.7,737.6c0,35.4,-24.3,65.2,-65.3,65.2c-40.7,0,-64.5,-29.8,-64.5,-65.2V672c0,-35.1,24.1,-65.3,64.5,-65.3c40.5,0,64.5,30.4,64.5,66.6v1.4H968.3v-1.6c0,-15.9,-9.5,-29.9,-25.9,-29.9c-17.2,0,-25.9,13.7,-25.9,28.8v65.6c0,15.3,8.2,28.8,25.9,28.8c17.2,0,26.7,-13.5,26.7,-28.8v-3.7h38.6Z" class="g0_1"/>
<path d="M1061.1,672v65.6c0,15.3,9.3,28.8,27.8,28.8c18.5,0,27.7,-13.5,27.7,-28.8V672c0,-15.1,-9.5,-28.8,-27.7,-28.8c-18.3,0,-27.8,13.7,-27.8,28.8m94.1,0v65.3c0,35.1,-24.8,65.5,-66.3,65.5c-41.8,0,-66.4,-30.4,-66.4,-65.5V672c0,-35.1,24.9,-65.3,66.4,-65.3c41.5,0,66.3,30.2,66.3,65.3Z" class="g0_1"/>
<path d="M1210.2,762.4h21.1c18,0,27.5,-12.9,27.5,-27.8V675.4c0,-15,-9.8,-28.2,-27.5,-28.2h-21.1ZM1231.3,611c41.5,0,66.1,29.8,66.1,64.7v58.7c0,34.6,-24.6,64.2,-66.1,64.2h-59.4V611Z" class="g0_1"/>
<path d="M1352.6,647.2v37H1405v36.4h-52.4v41.8h67.7v36.2H1314.1V611h106.2v36.2Z" class="g0_1"/>
<path d="M1457.8,628.9v64.5h59.8v18h-59.8v87.2h-18.7V611h97.2v17.9Z" class="g0_1"/>
<path d="M1597.1,611h-18.7l-58.7,187.6H1540l47.6,-159.4L1636,798.6h19.8Z" class="g0_1"/>
<path d="M1777.4,741c0,35.1,-22.5,61.3,-59.2,61.3c-36.2,0,-59,-26.2,-59,-61.6V668.8c0,-35.6,22.2,-61.5,58.7,-61.5c36.2,0,58.7,24.5,58.7,58.6v.8h-18.8v-.8c0,-24,-15.3,-40.9,-39.9,-40.9c-25.3,0,-39.9,17.7,-39.9,44.1v71.4c0,26.1,14.8,44.1,40.2,44.1c25.4,0,40.2,-18,40.2,-43.6v-2.6h19Z" class="g0_1"/>
<path d="M1895.5,628.9h-49.6V798.6h-18.8V628.9h-49.4V611h117.8Z" class="g0_1"/>
<path d="M1916.4,669.1v71.4c0,25.9,15.9,44.1,42.3,44.1c26.4,0,42.3,-18.2,42.3,-44.1V669.1c0,-26.4,-15.6,-43.9,-42.3,-43.9c-26.4,0,-42.3,17.7,-42.3,43.9m103.6,0v71.6c0,35.4,-23.2,61.6,-61.3,61.6c-37.5,0,-61,-26.2,-61,-61.6V669.1c0,-35.7,23.5,-61.8,61,-61.8c38.1,0,61.3,26.1,61.3,61.8Z" class="g0_1"/>
<path d="M2062.1,628.9v64.5h32.2c22.2,0,34.6,-13.2,34.6,-32.5c0,-19,-12.1,-32,-34.6,-32ZM2094.3,611c35.7,0,53.9,23.5,53.9,49.9c0,25.4,-16.4,48.1,-48.3,50.2l64.7,87.5h-22.5l-63.4,-87.5h-16.6v87.5h-18.8V611Z" class="g0_1"/>
<path d="M2225.7,703.5v95.1h-18.8V703.7L2148.2,611h22l46.2,73.4L2262.7,611h22.7Z" class="g0_1"/>
<path d="M775.5,449.3h23.2l13.9,-43.8V364.8H767.7v43.5h21.2Z" class="g0_1"/>
<path d="M811.7,290.5H768.2V334h43.5V290.5Z" class="g0_1"/>
<path d="M541.1,718.8l54.5,24.9V723.4L563.9,710.3l31.7,-13.2V676.8l-54.5,24.9Z" class="g0_1"/>
<path d="M693.8,743.7l54.4,-24.9V701.7L693.8,676.8v20.3l31.6,13.2l-31.6,13.1Z" class="g0_1"/>
<path d="M758.7,483.5V610.7H725l-14.7,31.6h79.9V769.5H652L637,801H821.8V483.5Z" class="g0_1"/>
<path d="M603.6,769.5h-99V642.8l79.2,-31.7v30.8l97.9,-39.2ZM615.3,595V563.1L473.1,621.4V801.1H614.2l116.3,-252Z" class="g0_1"/>

</g>
</svg>
