<svg width="4750" height="4750" xmlns="http://www.w3.org/2000/svg" clip-rule="evenodd" version="1.1" xml:space="preserve">

 <g>
  <title>Layer 1</title>
  <metadata stroke="null" id="CorelCorpID_0Corel-Layer"/>
  <g id="svg_15">
   <path stroke="null" id="svg_6" fill="#898989" d="m134.24014,3320.6137l2058,0c5,-75 6,-148 6,-217c-1,-81 -5,-161 -10,-237c-39,4 -78,7 -117,8c-483,17 -906,-200 -991,-724c-11,-67 -14,-132 -16,-200c113,-134 225,-239 390,-304c279,-110 596,-31 788,205c58,71 103,152 138,240c35,-88 80,-170 138,-240c193,-236 509,-315 788,-205c166,65 277,170 390,304c-2,68 -5,132 -16,200c-85,524 -508,741 -991,724c-40,-1 -79,-4 -118,-9c-6,83 -10,170 -10,259c0,65 1,130 5,195l2059,0c-1498,-3518 -2995,-3518 -4493,0l2,1z" class="fil1"/>
   <path stroke="null" id="svg_7" fill="#97C230" d="m805.24014,3455.6137l1498,0c9,-98 13,-216 12,-321c-1,-154 -10,-305 -20,-419c-136,19 -251,41 -441,14c-345,-48 -637,-255 -653,-722c166,-192 394,-311 651,-250c261,61 397,266 464,513c16,52 31,113 47,184l34,0c16,-71 31,-132 47,-184c67,-247 203,-452 464,-513c258,-61 485,58 651,250c-15,425 -257,634 -561,705c-170,40 -363,36 -533,3c-15,181 -31,476 -7,741l1497,0c-1050,665 -2100,665 -3150,0l0,-1z" class="fil2"/>
  </g>
 </g>
</svg>